<svg xmlns="http://www.w3.org/2000/svg" viewBox="0 0 114.91 114.91"><defs><style>.cls-1{fill:#fff;}</style></defs><title>アセット 2</title><g id="レイヤー_2" data-name="レイヤー 2"><g id="レイヤー_1-2" data-name="レイヤー 1"><circle class="cls-1" cx="57.46" cy="57.46" r="32.65"/><polygon class="cls-1" points="58 0 50.72 19.59 65.29 19.59 58 0"/><polygon class="cls-1" points="17.22 16.44 25.91 35.44 36.22 25.14 17.22 16.44"/><polygon class="cls-1" points="0 56.91 19.59 64.19 19.59 49.62 0 56.91"/><polygon class="cls-1" points="16.44 97.7 35.44 89 25.14 78.69 16.44 97.7"/><polygon class="cls-1" points="56.91 114.91 64.19 95.33 49.62 95.33 56.91 114.91"/><polygon class="cls-1" points="97.7 98.47 89 79.47 78.69 89.77 97.7 98.47"/><polygon class="cls-1" points="114.91 58 95.33 50.72 95.33 65.29 114.91 58"/><polygon class="cls-1" points="98.47 17.22 79.47 25.91 89.77 36.22 98.47 17.22"/></g></g></svg>